<?xml version="1.0" encoding="UTF-8" standalone="no"?><svg xmlns="http://www.w3.org/2000/svg" xmlns:xlink="http://www.w3.org/1999/xlink" fill="none" height="87.4" preserveAspectRatio="xMidYMid meet" style="fill: none" version="1" viewBox="9.3 6.4 86.2 87.4" width="86.2" zoomAndPan="magnify"><g id="change1_1"><path d="M20.8915 69.1732C11.8545 65.6215 9.26284 59.394 13.1165 50.4906C16.9702 41.5872 21.4329 33.0106 26.5046 24.7606C31.5763 16.5107 38.9314 11.1813 48.5699 8.77232C58.2084 6.36338 63.6578 11.0322 64.9181 22.7789C66.1783 34.5255 71.8422 40.9052 81.9099 41.9181C91.9776 42.9309 95.4609 47.4924 92.3598 55.6027C89.2587 63.7131 85.5441 71.7436 81.2159 79.6942C76.8877 87.6449 70.3034 91.1937 61.4628 90.3405C52.6222 89.4874 45.9094 86.6341 41.3245 81.7807C36.7395 76.9273 29.9285 72.7248 20.8915 69.1732Z" fill="#4d3398"/></g><g id="change1_2"><path d="M16.3326 52.5958C9.70497 45.4996 10.0468 38.763 17.3581 32.386C24.6693 26.009 32.3896 20.189 40.519 14.9262C48.6483 9.66332 57.5813 8.01951 67.318 9.99472C77.0546 11.9699 79.9632 18.53 76.0436 29.6749C72.124 40.8198 74.4897 49.0164 83.1406 54.2648C91.7915 59.5132 92.9716 65.13 86.6811 71.1152C80.3905 77.1004 73.5805 82.7494 66.2511 88.0623C58.9217 93.3751 51.4509 93.7435 43.8389 89.1675C36.2268 84.5915 31.3963 79.1262 29.3474 72.7718C27.2985 66.4173 22.9603 59.692 16.3326 52.5958Z" fill="#4d3398" opacity="0.3"/></g></svg>